<svg width="40" height="40" viewBox="0 0 40 40" fill="none" xmlns="http://www.w3.org/2000/svg">
<g clip-path="url(#clip0_172_2)">
<path d="M19.9999 3.33333C29.2046 3.33333 36.6666 10.7952 36.6666 20C36.6666 29.2047 29.2046 36.6667 19.9999 36.6667C10.7952 36.6667 3.33325 29.2047 3.33325 20C3.33325 10.7952 10.7952 3.33333 19.9999 3.33333ZM19.9999 6.66666C12.6361 6.66666 6.66659 12.6362 6.66659 20C6.66659 27.3638 12.6361 33.3333 19.9999 33.3333C27.3638 33.3333 33.3333 27.3638 33.3333 20C33.3333 12.6362 27.3638 6.66666 19.9999 6.66666ZM16.4645 14.1074L19.9999 17.6428L23.5354 14.1073C24.1863 13.4565 25.2416 13.4565 25.8924 14.1073C26.5433 14.7582 26.5433 15.8135 25.8924 16.4644L22.3569 19.9998L25.8926 23.5355C26.5434 24.1863 26.5434 25.2417 25.8926 25.8925C25.2418 26.5433 24.1864 26.5433 23.5356 25.8925L19.9999 22.3568L16.4643 25.8925C15.8135 26.5433 14.7582 26.5433 14.1073 25.8925C13.4564 25.2417 13.4564 24.1863 14.1073 23.5355L17.6429 19.9998L14.1075 16.4644C13.4566 15.8135 13.4566 14.7583 14.1075 14.1074C14.7583 13.4565 15.8136 13.4565 16.4645 14.1074Z" fill="#CD5151"/>
</g>
<defs>
<clipPath id="clip0_172_2">
<rect width="40" height="40" fill="white"/>
</clipPath>
</defs>
</svg>
