<svg width="70" height="70" viewBox="0 0 70 70" fill="none" xmlns="http://www.w3.org/2000/svg">
<path d="M35 0C15.715 0 0 15.715 0 35C0 54.285 15.715 70 35 70C54.285 70 70 54.285 70 35C70 15.715 54.285 0 35 0ZM47.565 30.065L35.245 42.385C34.72 42.91 34.055 43.155 33.39 43.155C32.725 43.155 32.025 42.91 31.535 42.385L25.375 36.225C24.325 35.21 24.325 33.53 25.375 32.515C26.39 31.5 28.07 31.5 29.085 32.515L33.39 36.82L43.855 26.355C44.87 25.34 46.515 25.34 47.565 26.355C48.58 27.37 48.58 29.05 47.565 30.065Z" fill="#72C0A6"/>
</svg>
