<svg width="70" height="70" viewBox="0 0 70 70" fill="none" xmlns="http://www.w3.org/2000/svg">
<path d="M52.6459 8.83748H52.1792V8.02081C52.1792 6.82498 51.1875 5.83331 49.9917 5.83331C48.7958 5.83331 47.8042 6.82498 47.8042 8.02081V8.83748H22.1958V8.02081C22.1958 6.82498 21.2333 5.83331 20.0083 5.83331C18.8125 5.83331 17.8208 6.82498 17.8208 8.02081V8.83748H17.3542C10.9958 8.83748 5.83334 14 5.83334 20.3583V52.6458C5.83334 59.0042 10.9958 64.1666 17.3542 64.1666H52.6459C59.0042 64.1666 64.1667 59.0042 64.1667 52.6458V20.3583C64.1667 14 59.0042 8.83748 52.6459 8.83748ZM17.5 55.3291C15.8958 55.3291 14.5833 54.0458 14.5833 52.4125C14.5833 50.8083 15.8958 49.4958 17.5 49.4958C19.1042 49.4958 20.4167 50.8083 20.4167 52.4125C20.4167 54.0458 19.1042 55.3291 17.5 55.3291ZM17.5 45.1792C15.8958 45.1792 14.5833 43.8667 14.5833 42.2625C14.5833 40.6292 15.8958 39.3458 17.5 39.3458C19.1042 39.3458 20.4167 40.6292 20.4167 42.2625C20.4167 43.8667 19.1042 45.1792 17.5 45.1792ZM17.5 35C15.8958 35 14.5833 33.6875 14.5833 32.0833C14.5833 30.4791 15.8958 29.1666 17.5 29.1666C19.1042 29.1666 20.4167 30.4791 20.4167 32.0833C20.4167 33.6875 19.1042 35 17.5 35ZM29.1667 55.3291C27.5625 55.3291 26.25 54.0458 26.25 52.4125C26.25 50.8083 27.5625 49.4958 29.1667 49.4958C30.7708 49.4958 32.0833 50.8083 32.0833 52.4125C32.0833 54.0458 30.7708 55.3291 29.1667 55.3291ZM29.1667 45.1792C27.5625 45.1792 26.25 43.8667 26.25 42.2625C26.25 40.6292 27.5625 39.3458 29.1667 39.3458C30.7708 39.3458 32.0833 40.6292 32.0833 42.2625C32.0833 43.8667 30.7708 45.1792 29.1667 45.1792ZM29.1667 35C27.5625 35 26.25 33.6875 26.25 32.0833C26.25 30.4791 27.5625 29.1666 29.1667 29.1666C30.7708 29.1666 32.0833 30.4791 32.0833 32.0833C32.0833 33.6875 30.7708 35 29.1667 35ZM40.8333 55.3291C39.2292 55.3291 37.9167 54.0458 37.9167 52.4125C37.9167 50.8083 39.2292 49.4958 40.8333 49.4958C42.4375 49.4958 43.75 50.8083 43.75 52.4125C43.75 54.0458 42.4375 55.3291 40.8333 55.3291ZM40.8333 45.1792C39.2292 45.1792 37.9167 43.8667 37.9167 42.2625C37.9167 40.6292 39.2292 39.3458 40.8333 39.3458C42.4375 39.3458 43.75 40.6292 43.75 42.2625C43.75 43.8667 42.4375 45.1792 40.8333 45.1792ZM40.8333 35C39.2292 35 37.9167 33.6875 37.9167 32.0833C37.9167 30.4791 39.2292 29.1666 40.8333 29.1666C42.4375 29.1666 43.75 30.4791 43.75 32.0833C43.75 33.6875 42.4375 35 40.8333 35ZM52.5 45.1792C50.8958 45.1792 49.5833 43.8667 49.5833 42.2625C49.5833 40.6292 50.8958 39.3458 52.5 39.3458C54.1042 39.3458 55.4167 40.6292 55.4167 42.2625C55.4167 43.8667 54.1042 45.1792 52.5 45.1792ZM52.5 35C50.8958 35 49.5833 33.6875 49.5833 32.0833C49.5833 30.4791 50.8958 29.1666 52.5 29.1666C54.1042 29.1666 55.4167 30.4791 55.4167 32.0833C55.4167 33.6875 54.1042 35 52.5 35ZM59.7917 20.8541H10.2083V20.3583C10.2083 16.4208 13.4167 13.2125 17.3542 13.2125H17.8208V14.0291C17.8208 15.2541 18.8125 16.2166 20.0083 16.2166C21.2333 16.2166 22.1958 15.2541 22.1958 14.0291V13.2125H47.8042V14.0291C47.8042 15.2541 48.7958 16.2166 49.9917 16.2166C51.1875 16.2166 52.1792 15.2541 52.1792 14.0291V13.2125H52.6459C56.5834 13.2125 59.7917 16.4208 59.7917 20.3583V20.8541Z" fill="#283742"/>
</svg>
