<svg width="50" height="50" viewBox="0 0 50 50" fill="none" xmlns="http://www.w3.org/2000/svg">
<g clip-path="url(#clip0_16_219)">
<path d="M13.1564 12.8665C12.636 11.5376 12.6564 10.019 12.8884 8.62842C14.4675 9.11313 15.9913 9.85534 17.3054 10.8596C17.8861 11.3034 18.6513 11.4489 19.3644 11.2328C21.0927 10.7091 22.9952 10.4168 25 10.4168C27.0029 10.4168 28.9035 10.7085 30.6306 11.2313C31.3435 11.4471 32.1081 11.3017 32.6887 10.8582C34.0023 9.85467 35.5254 9.1129 37.1037 8.62842C37.3356 10.0177 37.356 11.5344 36.8375 12.8625C36.525 13.6624 36.6816 14.5835 37.2704 15.2369C38.7787 16.9103 39.5833 18.8349 39.5833 20.8335C39.5833 25.2379 35.4804 29.5563 28.8879 30.8713C27.2371 31.2006 26.5929 33.2763 27.8564 34.4667C28.6658 35.2292 29.1666 36.3044 29.1666 37.5002V43.7502C29.1666 44.9006 30.0994 45.8335 31.25 45.8335C32.4006 45.8335 33.3333 44.9006 33.3333 43.7502V37.5002C33.3333 36.3131 33.0844 35.1833 32.6369 34.1608C38.9231 31.9788 43.75 27.0677 43.75 20.8335C43.75 18.0261 42.7408 15.4476 41.0683 13.2876C41.5054 11.5801 41.4666 9.85788 41.3004 8.53665C41.1516 7.35428 40.9448 5.80347 40.1108 4.8794C38.8721 3.50711 36.8191 4.31457 35.3608 4.81351C34.0725 5.25157 32.4787 5.94978 30.9348 6.99061C29.065 6.50909 27.0687 6.25017 25 6.25017C22.9291 6.25017 20.9308 6.50961 19.0595 6.99205C17.5154 5.9507 15.9212 5.25215 14.6324 4.81388C13.1742 4.31488 11.1199 3.50705 9.88127 4.87965C9.03213 5.82063 8.85321 7.24828 8.7014 8.45967L8.69135 8.53967C8.52523 9.86222 8.48694 11.5863 8.92588 13.2951C7.25671 15.4536 6.24998 18.0294 6.24998 20.8335C6.24998 27.0677 11.0769 31.9788 17.3632 34.1608C16.9207 35.1715 16.6724 36.2869 16.6667 37.459L16.3173 37.5288C14.8239 37.7346 13.8672 37.5513 13.216 37.275C11.6326 36.6033 10.8172 34.9138 9.81913 33.6223C9.19902 32.8198 8.29588 31.8194 6.90883 31.3571C5.81729 30.9933 4.63746 31.5831 4.2736 32.6748C3.90977 33.7663 4.49969 34.946 5.59123 35.31C6.75517 35.6979 7.55854 37.6894 8.29542 38.5735C9.07225 39.5058 10.1058 40.4817 11.5887 41.1108C13.0086 41.7131 14.6764 41.9288 16.6666 41.685V43.7502C16.6666 44.9006 17.5994 45.8335 18.75 45.8335C19.9006 45.8335 20.8333 44.9006 20.8333 43.7502V37.5002C20.8333 36.3044 21.3341 35.2292 22.1435 34.4667C23.4073 33.276 22.7625 31.2006 21.1121 30.8713C14.5196 29.5563 10.4166 25.2379 10.4166 20.8335C10.4166 18.8369 11.2197 16.9142 12.7251 15.2418C13.3137 14.5879 13.4696 13.6664 13.1564 12.8665Z" fill="#FA7D0A"/>
</g>
<defs>
<clipPath id="clip0_16_219">
<rect width="50" height="50" fill="white"/>
</clipPath>
</defs>
</svg>
