<svg width="50" height="50" viewBox="0 0 50 50" fill="none" xmlns="http://www.w3.org/2000/svg">
<path d="M7.67893 26.4286H12.6486V27.9847H7.67893V26.4286ZM25.5834 25.0102C26.0545 25.0102 26.4976 25.1122 26.8959 25.2857C28.4272 23.5969 30.138 22.0816 32.0675 20.7755C32.5387 21.1837 33.0099 21.5918 33.4866 22C32.0339 24.0051 30.3624 25.7143 28.5225 27.1939C28.5618 27.3724 28.5843 27.551 28.5843 27.7398C28.5843 29.2449 27.2437 30.4643 25.589 30.4643C23.9343 30.4643 22.5937 29.2449 22.5937 27.7398C22.5937 27.1633 22.79 26.6276 23.1265 26.1888C20.9109 23.4694 19.0206 20.551 17.4781 17.4133C17.9773 17.1633 18.4822 16.9133 18.9814 16.6633C21.197 19.3725 23.1322 22.1888 24.7252 25.1327C24.9888 25.0561 25.2805 25.0102 25.5834 25.0102ZM21.298 10.1633L21.2923 14.8163L35.4162 7.43367L21.3204 0L21.3092 4.77041C16.0141 5.48469 11.123 7.72959 7.32555 11.1837C2.62508 15.4643 0 21.2143 0 27.2602C0 33.3112 2.62508 39.0612 7.32555 43.3367C12.026 47.6174 18.3475 50 25 50C31.6525 50 37.974 47.6174 42.6801 43.3367C45.479 40.7908 47.5881 37.6684 48.7996 34.2398L49.0857 33.4235L43.4878 31.9133L43.2073 32.6888C42.2706 35.2857 40.672 37.6531 38.5461 39.5816C34.9394 42.8622 30.0987 44.6837 25 44.6837C19.9013 44.6837 15.0606 42.8571 11.4595 39.5765C7.85282 36.2959 5.85035 31.8929 5.85035 27.2551C5.85035 22.6173 7.85842 18.2143 11.4595 14.9388C14.1519 12.4898 17.5735 10.8316 21.298 10.1633ZM43.9421 24.648C43.757 23.5306 43.4541 22.4388 43.0334 21.3776L42.7249 20.5969L48.1995 18.7347L48.5192 19.5306C49.1306 21.0663 49.5513 22.6582 49.7869 24.2755L49.9215 25.1888L44.0655 25.3827L43.9421 24.648ZM43.8355 30.4541C44.0487 29.4031 44.1553 28.3367 44.1553 27.2653C44.1553 27.1582 44.1553 27.0561 44.1497 26.949L44.1328 26.1224L49.972 25.9286L49.9944 26.7806C50 26.9388 50 27.0969 50 27.2602C50 28.7857 49.8317 30.3163 49.5008 31.8112L49.2989 32.7092L43.6841 31.1939L43.8355 30.4541ZM42.0182 19.2602C41.5021 18.3571 40.902 17.4949 40.2232 16.6888L39.6679 16.0255L44.2674 12.75L44.834 13.4235C45.838 14.6122 46.7074 15.8827 47.4366 17.2245L47.8853 18.0561L42.394 19.9235L42.0182 19.2602ZM39.1295 15.4745L38.5405 14.9439C37.6879 14.1684 36.7568 13.4643 35.7584 12.8469L34.9338 12.3367L38.5854 8.15816L39.2977 8.61225C40.4981 9.37755 41.6311 10.2398 42.6688 11.1837C42.7866 11.2959 42.91 11.4082 43.0278 11.5204L43.7346 12.1939L39.1295 15.4745ZM25.0112 42.7245V38.2092H26.722V42.7245H25.0112ZM37.5589 38.2143L34.0476 35.0204L35.2591 33.9184L38.7705 37.1122L37.5589 38.2143ZM12.6318 37.8418L16.1488 34.648L17.3547 35.75L13.8434 38.9439L12.6318 37.8418ZM13.0413 15.1735L16.5526 18.3673L15.3466 19.4694L11.8353 16.2755L13.0413 15.1735ZM37.9684 15.5408L36.7568 14.4388L33.2455 17.6378L34.4514 18.7398L37.9684 15.5408ZM42.9269 26.9592H37.9571V25.4031H42.9269V26.9592Z" fill="url(#paint0_linear_8_38)"/>
<defs>
<linearGradient id="paint0_linear_8_38" x1="-13.5" y1="10.5" x2="37.5" y2="48" gradientUnits="userSpaceOnUse">
<stop stop-color="#24C3CE"/>
<stop offset="0.753025" stop-color="#24C3CE"/>
<stop offset="0.753125" stop-color="#FA7D0A"/>
<stop offset="1" stop-color="#FA7D0A"/>
</linearGradient>
</defs>
</svg>
