<svg width="70" height="70" viewBox="0 0 70 70" fill="none" xmlns="http://www.w3.org/2000/svg">
<path d="M35 0C15.715 0 0 15.715 0 35C0 54.285 15.715 70 35 70C54.285 70 70 54.285 70 35C70 15.715 54.285 0 35 0ZM32.235 42.21C32.235 43.645 31.045 44.835 29.61 44.835C28.175 44.835 26.985 43.645 26.985 42.21V27.79C26.985 26.355 28.175 25.165 29.61 25.165C31.045 25.165 32.235 26.355 32.235 27.79V42.21ZM43.015 42.21C43.015 43.645 41.86 44.835 40.39 44.835C38.955 44.835 37.765 43.645 37.765 42.21V27.79C37.765 26.355 38.955 25.165 40.39 25.165C41.86 25.165 43.015 26.355 43.015 27.79V42.21Z" fill="#EA9141"/>
</svg>
