<svg width="70" height="70" viewBox="0 0 70 70" fill="none" xmlns="http://www.w3.org/2000/svg">
<path d="M59.745 10.255C53.41 3.91997 44.66 0 35 0C25.34 0 16.59 3.91997 10.255 10.255C3.91997 16.59 0 25.34 0 35C0 54.32 15.68 70 35 70C44.66 70 53.41 66.08 59.745 59.745C66.08 53.41 70 44.66 70 35C70 25.34 66.08 16.59 59.745 10.255ZM46.725 37.52L30.205 45.9901C29.82 46.2001 29.365 46.305 28.91 46.305C28.42 46.305 27.895 46.1649 27.44 45.8849C26.6 45.3599 26.075 44.45 26.075 43.47V26.53C26.075 25.55 26.6 24.6401 27.44 24.1151C28.28 23.5901 29.33 23.5549 30.205 24.0099L46.725 32.48C47.705 32.97 48.265 33.915 48.265 35C48.265 36.085 47.705 37.03 46.725 37.52Z" fill="#EA9141"/>
</svg>
