<svg width="36" height="36" viewBox="0 0 36 36" fill="none" xmlns="http://www.w3.org/2000/svg">
<g clip-path="url(#clip0_15_27)">
<path d="M31.147 11.9736L31.1802 12.2592L31.1915 12.549V23.451C31.1915 24.7013 30.5688 25.8632 29.5425 26.5571L29.3165 26.6985L19.875 32.1495L19.6895 32.2499L19.5 32.3389V18.8559L31.147 11.9736ZM4.85304 11.9737L16.5 18.8559V32.3389C16.3725 32.2831 16.2473 32.2201 16.125 32.1495L6.68372 26.6985C5.52347 26.0288 4.80872 24.7907 4.80872 23.451V12.549C4.80872 12.3546 4.82378 12.1624 4.85304 11.9737ZM19.875 3.85049L29.3165 9.30146C29.3922 9.3452 29.466 9.39137 29.538 9.43983L18 16.2578L6.46214 9.43986C6.53405 9.39138 6.60792 9.34521 6.68372 9.30146L16.125 3.85049C17.2853 3.18062 18.7148 3.18062 19.875 3.85049Z" fill="black"/>
</g>
<defs>
<clipPath id="clip0_15_27">
<rect width="36" height="36" fill="white"/>
</clipPath>
</defs>
</svg>
