<svg width="70" height="70" viewBox="0 0 70 70" fill="none" xmlns="http://www.w3.org/2000/svg">
<g clip-path="url(#clip0_31_218)">
<path fill-rule="evenodd" clip-rule="evenodd" d="M9.49343 10.6963C7.85557 8.78546 9.21322 5.83333 11.7301 5.83333H48.125C55.3738 5.83333 61.25 11.7096 61.25 18.9583C61.25 26.2071 55.3738 32.0833 48.125 32.0833H11.7301C9.21305 32.0833 7.85569 29.1311 9.49343 27.2204L11.6943 24.6527C14.5029 21.376 14.5029 16.5407 11.6943 13.2639L9.49343 10.6963ZM8.75 48.125C8.75 40.8762 14.6263 35 21.875 35H58.27C60.7868 35 62.1443 37.9522 60.5065 39.863L58.3056 42.4305C55.4972 45.7074 55.4972 50.5426 58.3056 53.8195L60.5065 56.387C62.1443 58.2977 60.7868 61.25 58.27 61.25H21.875C14.6263 61.25 8.75 55.3738 8.75 48.125Z" fill="#283742"/>
</g>
<defs>
<clipPath id="clip0_31_218">
<rect width="70" height="70" fill="white"/>
</clipPath>
</defs>
</svg>
