<svg width="70" height="70" viewBox="0 0 70 70" fill="none" xmlns="http://www.w3.org/2000/svg">
<path d="M35 0C15.715 0 0 15.715 0 35C0 54.285 15.715 70 35 70C54.285 70 70 54.285 70 35C70 15.715 54.285 0 35 0ZM43.47 39.865C44.52 40.915 44.485 42.56 43.47 43.575C42.945 44.065 42.2801 44.345 41.6151 44.345C40.9501 44.345 40.25 44.065 39.7599 43.54L35 38.745L30.275 43.54C29.75 44.065 29.0849 44.345 28.3849 44.345C27.7199 44.345 27.055 44.065 26.565 43.575C25.515 42.56 25.515 40.915 26.53 39.865L31.325 35L26.53 30.135C25.515 29.085 25.515 27.44 26.565 26.425C27.58 25.41 29.26 25.41 30.275 26.46L35 31.255L39.7599 26.46C40.7749 25.41 42.42 25.41 43.47 26.425C44.485 27.44 44.52 29.085 43.47 30.135L38.675 35L43.47 39.865Z" fill="#CD5151"/>
</svg>
