<svg width="36" height="36" viewBox="0 0 36 36" fill="none" xmlns="http://www.w3.org/2000/svg">
<g clip-path="url(#clip0_16_34)">
<path d="M10.5 4.5V6C10.5 7.65686 11.8431 9 13.5 9H22.5C24.1569 9 25.5 7.65686 25.5 6V4.5H27C28.6569 4.5 30 5.84314 30 7.5V24C30 28.9706 25.9706 33 21 33H9C7.34314 33 6 31.6569 6 30V7.5C6 5.84314 7.34314 4.5 9 4.5H10.5ZM18 21H13.5C12.6716 21 12 21.6716 12 22.5C12 23.3284 12.6716 24 13.5 24H18C18.8285 24 19.5 23.3284 19.5 22.5C19.5 21.6716 18.8285 21 18 21ZM22.5 15H13.5C12.6716 15 12 15.6715 12 16.5C12 17.2693 12.5791 17.9033 13.3251 17.9899L13.5 18H22.5C23.3284 18 24 17.3285 24 16.5C24 15.6715 23.3284 15 22.5 15ZM21 3C21.8285 3 22.5 3.67158 22.5 4.5C22.5 5.26925 21.921 5.90326 21.1749 5.98991L21 6H15C14.1716 6 13.5 5.32842 13.5 4.5C13.5 3.73075 14.0791 3.09674 14.8251 3.01009L15 3H21Z" fill="black"/>
</g>
<defs>
<clipPath id="clip0_16_34">
<rect width="36" height="36" fill="white"/>
</clipPath>
</defs>
</svg>
