<svg width="70" height="70" viewBox="0 0 70 70" fill="none" xmlns="http://www.w3.org/2000/svg">
<path d="M49.9916 5.71674H20.0082C15.5165 5.71674 11.8416 9.36253 11.8416 13.8834V55.8542C11.8416 60.375 15.5165 64.05 20.0082 64.05H49.9916C54.5124 64.05 58.1582 60.375 58.1582 55.8542V13.8834C58.1582 9.36253 54.5124 5.71674 49.9916 5.71674ZM23.0124 47.8043H46.9874C48.2124 47.8043 49.1749 48.7959 49.1749 49.9918C49.1749 51.1876 48.2124 52.1793 46.9874 52.1793H23.0124C21.8166 52.1793 20.8249 51.1876 20.8249 49.9918C20.8249 48.7959 21.8166 47.8043 23.0124 47.8043ZM20.8249 35C20.8249 33.8042 21.8166 32.8125 23.0124 32.8125H46.9874C48.2124 32.8125 49.1749 33.8042 49.1749 35C49.1749 36.225 48.2124 37.1875 46.9874 37.1875H23.0124C21.8166 37.1875 20.8249 36.225 20.8249 35ZM46.9874 22.1959H23.0124C21.8166 22.1959 20.8249 21.2334 20.8249 20.0084C20.8249 18.8126 21.8166 17.8209 23.0124 17.8209H46.9874C48.2124 17.8209 49.1749 18.8126 49.1749 20.0084C49.1749 21.2334 48.2124 22.1959 46.9874 22.1959Z" fill="#283742"/>
</svg>
